<svg width="10" height="5" viewBox="0 0 10 5" fill="none" xmlns="http://www.w3.org/2000/svg">
<path d="M0.148037 4.86845C0.10111 4.82703 0.0638797 4.77782 0.0384775 4.72365C0.0130754 4.66948 0 4.6114 0 4.55276C0 4.49411 0.0130754 4.43604 0.0384775 4.38187C0.0638797 4.3277 0.10111 4.27849 0.148037 4.23706L2.11212 2.49961L0.148037 0.762159C0.0533878 0.678431 0.000214343 0.564872 0.000214343 0.446463C0.000214343 0.328053 0.0533878 0.214493 0.148037 0.130765C0.242686 0.0470371 0.371058 0 0.504912 0C0.638766 0 0.767138 0.0470371 0.861787 0.130765L3.18527 2.18615C3.2322 2.22758 3.26943 2.27679 3.29483 2.33096C3.32023 2.38513 3.33331 2.4432 3.33331 2.50185C3.33331 2.5605 3.32023 2.61857 3.29483 2.67274C3.26943 2.72691 3.2322 2.77612 3.18527 2.81755L0.861787 4.87293C0.669429 5.0431 0.345457 5.04309 0.148037 4.86845Z" fill="white"/>
<path d="M3.48104 4.86845C3.43412 4.82703 3.39689 4.77782 3.37149 4.72365C3.34608 4.66948 3.33301 4.6114 3.33301 4.55276C3.33301 4.49411 3.34608 4.43604 3.37149 4.38187C3.39689 4.3277 3.43412 4.27849 3.48104 4.23706L5.44512 2.49961L3.48104 0.762159C3.3864 0.678431 3.33322 0.564872 3.33322 0.446463C3.33322 0.328053 3.3864 0.214493 3.48104 0.130765C3.57569 0.0470371 3.70407 0 3.83792 0C3.97177 0 4.10015 0.0470371 4.19479 0.130765L6.51828 2.18615C6.56521 2.22758 6.60244 2.27679 6.62784 2.33096C6.65324 2.38513 6.66632 2.4432 6.66632 2.50185C6.66632 2.5605 6.65324 2.61857 6.62784 2.67274C6.60244 2.72691 6.56521 2.77612 6.51828 2.81755L4.19479 4.87293C4.00244 5.0431 3.67847 5.04309 3.48104 4.86845Z" fill="#A8C7EC"/>
<path d="M6.81503 4.86845C6.7681 4.82703 6.73087 4.77782 6.70547 4.72365C6.68007 4.66948 6.66699 4.6114 6.66699 4.55276C6.66699 4.49411 6.68007 4.43604 6.70547 4.38187C6.73087 4.3277 6.7681 4.27849 6.81503 4.23706L8.77911 2.49961L6.81503 0.762159C6.72038 0.678431 6.66721 0.564872 6.66721 0.446463C6.66721 0.328053 6.72038 0.214493 6.81503 0.130765C6.90968 0.0470371 7.03805 0 7.1719 0C7.30576 0 7.43413 0.0470371 7.52878 0.130765L9.85226 2.18615C9.89919 2.22758 9.93642 2.27679 9.96182 2.33096C9.98723 2.38513 10.0003 2.4432 10.0003 2.50185C10.0003 2.5605 9.98723 2.61857 9.96182 2.67274C9.93642 2.72691 9.89919 2.77612 9.85226 2.81755L7.52878 4.87293C7.33642 5.0431 7.01245 5.04309 6.81503 4.86845Z" fill="#B4D6FB"/>
</svg>
