<svg width="17" height="5" viewBox="0 0 17 5" fill="none" xmlns="http://www.w3.org/2000/svg">
<path d="M2.12544 4.22718C1.5762 4.22718 1.10508 4.03542 0.712088 3.6519C0.323831 3.26364 0.132069 2.79252 0.136804 2.23855C0.132069 1.69877 0.323831 1.23713 0.712088 0.853604C1.10508 0.470082 1.5762 0.27832 2.12544 0.27832C2.64627 0.27832 3.10555 0.470082 3.50328 0.853604C3.90574 1.23713 4.10934 1.69877 4.11408 2.23855C4.10934 2.60787 4.01228 2.94404 3.82288 3.24707C3.63822 3.54537 3.39675 3.78448 3.09845 3.9644C2.80016 4.13959 2.47582 4.22718 2.12544 4.22718Z" fill="white"/>
<path d="M8.37544 4.22718C7.8262 4.22718 7.35508 4.03542 6.96209 3.6519C6.57383 3.26364 6.38207 2.79252 6.3868 2.23855C6.38207 1.69877 6.57383 1.23713 6.96209 0.853604C7.35508 0.470082 7.8262 0.27832 8.37544 0.27832C8.89627 0.27832 9.35555 0.470082 9.75328 0.853604C10.1557 1.23713 10.3593 1.69877 10.3641 2.23855C10.3593 2.60787 10.2623 2.94404 10.0729 3.24707C9.88822 3.54537 9.64675 3.78448 9.34845 3.9644C9.05016 4.13959 8.72582 4.22718 8.37544 4.22718Z" fill="white"/>
<path d="M14.6254 4.22718C14.0762 4.22718 13.6051 4.03542 13.2121 3.6519C12.8238 3.26364 12.6321 2.79252 12.6368 2.23855C12.6321 1.69877 12.8238 1.23713 13.2121 0.853604C13.6051 0.470082 14.0762 0.27832 14.6254 0.27832C15.1463 0.27832 15.6056 0.470082 16.0033 0.853604C16.4057 1.23713 16.6093 1.69877 16.6141 2.23855C16.6093 2.60787 16.5123 2.94404 16.3229 3.24707C16.1382 3.54537 15.8967 3.78448 15.5985 3.9644C15.3002 4.13959 14.9758 4.22718 14.6254 4.22718Z" fill="white"/>
</svg>
